<svg width="13" height="9" viewBox="0 0 13 9" fill="none" xmlns="http://www.w3.org/2000/svg">
<path d="M12.4651 0.000217261C12.3302 0.00408568 12.2021 0.0583451 12.108 0.1515L4.16345 7.79374L0.894313 4.649C0.846444 4.60104 0.789108 4.56275 0.725664 4.53637C0.662219 4.50999 0.593941 4.49606 0.524828 4.49538C0.455715 4.49471 0.387156 4.5073 0.323166 4.53243C0.259177 4.55756 0.201043 4.59472 0.15217 4.64174C0.103297 4.68875 0.0646674 4.74467 0.0385427 4.80623C0.012418 4.86778 -0.000676275 4.93373 2.68896e-05 5.00021C0.000730055 5.0667 0.0152165 5.13238 0.0426377 5.19341C0.070059 5.25444 0.109864 5.30959 0.159721 5.35564L3.79615 8.85369C3.89358 8.94737 4.02569 9 4.16345 9C4.3012 9 4.43332 8.94737 4.53074 8.85369L12.8426 0.858139C12.9177 0.787946 12.9689 0.697576 12.9897 0.598871C13.0104 0.500166 12.9997 0.397731 12.9589 0.30499C12.9181 0.212249 12.8491 0.133528 12.761 0.0791433C12.6729 0.0247591 12.5698 -0.00275127 12.4651 0.000217261Z" fill="#70B177"/>
</svg>
