<svg width="18" height="13" viewBox="0 0 18 13" fill="none" xmlns="http://www.w3.org/2000/svg">
<path d="M16.7965 0.193175C16.6146 0.198594 16.442 0.2746 16.3152 0.405089L5.61014 11.1102L1.20506 6.70509C1.14056 6.63791 1.0633 6.58427 0.977814 6.54732C0.892324 6.51037 0.800321 6.49085 0.707192 6.48991C0.614064 6.48896 0.521683 6.5066 0.435458 6.5418C0.349234 6.57701 0.270901 6.62906 0.205046 6.69491C0.139191 6.76077 0.0871377 6.8391 0.0519353 6.92533C0.0167329 7.01155 -0.000911264 7.10393 3.6233e-05 7.19706C0.00098373 7.29019 0.0205038 7.38219 0.0574533 7.46768C0.0944027 7.55317 0.148039 7.63043 0.21522 7.69493L5.11522 12.5949C5.2465 12.7262 5.42452 12.7999 5.61014 12.7999C5.79576 12.7999 5.97378 12.7262 6.10506 12.5949L17.3051 1.39493C17.4062 1.29661 17.4753 1.17002 17.5033 1.03176C17.5312 0.893493 17.5168 0.750004 17.4618 0.620094C17.4068 0.490184 17.3139 0.379914 17.1952 0.303733C17.0764 0.227553 16.9375 0.189017 16.7965 0.193175Z" fill="#70B177"/>
</svg>
